<svg xmlns="http://www.w3.org/2000/svg" viewBox="0 0 24 24" role="img" aria-label="#"><path fill="#EBEBEB" d="M0 12C0 5.373 5.373 0 12 0s12 5.373 12 12-5.373 12-12 12S0 18.627 0 12z"/><path fill="#AEAEAE" stroke="#AEAEAE" stroke-width=".25" d="M12 10.712l-3.8-3.8-.09-.089-.087.089-1.111 1.11-.089.089.089.088 3.8 3.801-3.8 3.8-.089.09.089.087 1.11 1.111.089.089.088-.089 3.801-3.8 3.8 3.8.09.089.087-.089 1.111-1.11.089-.089-.089-.088-3.8-3.801 3.8-3.8.089-.09-.089-.087-1.11-1.111-.089-.089-.088.089-3.801 3.8z"/></svg>