<svg xmlns="http://www.w3.org/2000/svg" viewBox="0 0 24 24" role="img" aria-label="#"><path fill="#EBEBEB" d="M0 12C0 5.373 5.373 0 12 0s12 5.373 12 12-5.373 12-12 12S0 18.627 0 12z"/><path fill="#AEAEAE" stroke="#AEAEAE" stroke-width=".25" d="M13.677 12.65v-.001c.579-.492.994-.918 1.262-1.39.27-.478.386-.994.386-1.659a3.725 3.725 0 10-7.45 0v.725h1.45V9.6a2.274 2.274 0 114.55 0c0 .415-.065.708-.232.989-.17.286-.451.57-.905.955-.676.574-1.145 1.055-1.443 1.587-.3.535-.42 1.112-.42 1.869v.125h1.45V15c0-.5.059-.842.248-1.176.193-.34.526-.685 1.104-1.175zm-1.052 5a1.025 1.025 0 10-2.05 0 1.025 1.025 0 002.05 0z"/></svg>